<svg width="30" height="30" viewBox="0 0 30 30" fill="none" xmlns="http://www.w3.org/2000/svg">
<g clip-path="url(#clip0_244_8137)">
<path d="M7.60735 29.8938C6.44698 29.8809 5.29751 29.6681 4.20941 29.2647C3.41484 28.971 2.69594 28.5034 2.10529 27.8962C1.4964 27.3067 1.02814 26.5876 0.735294 25.7924C0.33228 24.7043 0.11976 23.5549 0.107059 22.3947C0.0179412 20.4659 0 19.8874 0 15C0 10.1126 0.0197059 9.53618 0.106176 7.60588C0.120418 6.44611 0.333201 5.29734 0.735294 4.20941C1.02957 3.41471 1.49716 2.69553 2.10412 2.10412C2.69404 1.49577 3.41327 1.02795 4.20853 0.735294C5.29663 0.331946 6.44609 0.119126 7.60647 0.106176C9.53588 0.0179412 10.1153 0 15 0C19.8847 0 20.4638 0.0197059 22.3941 0.106176C23.5542 0.120318 24.7033 0.333102 25.7915 0.735294C26.5864 1.02833 27.3054 1.496 27.8956 2.10382C28.5036 2.69419 28.9715 3.41341 29.2647 4.20853C29.6682 5.29661 29.8811 6.44608 29.8941 7.60647C29.9824 9.53677 30.0003 10.1147 30.0003 15.0006C30.0003 19.8865 29.9824 20.4644 29.8941 22.3947C29.8801 23.5549 29.6672 24.7041 29.2647 25.7924C28.9602 26.5815 28.4939 27.2982 27.8957 27.8962C27.2975 28.4943 26.5807 28.9604 25.7915 29.2647C24.7034 29.6681 23.5539 29.8811 22.3935 29.8941C20.465 29.9824 19.8853 30.0003 14.9994 30.0003C10.1135 30.0003 9.53559 29.9832 7.60706 29.8941" fill="url(#paint0_radial_244_8137)"/>
<path d="M7.60735 29.8938C6.44698 29.8809 5.29751 29.6681 4.20941 29.2647C3.41484 28.971 2.69594 28.5034 2.10529 27.8962C1.4964 27.3067 1.02814 26.5876 0.735294 25.7924C0.33228 24.7043 0.11976 23.5549 0.107059 22.3947C0.0179412 20.4659 0 19.8874 0 15C0 10.1126 0.0197059 9.53618 0.106176 7.60588C0.120418 6.44611 0.333201 5.29734 0.735294 4.20941C1.02957 3.41471 1.49716 2.69553 2.10412 2.10412C2.69404 1.49577 3.41327 1.02795 4.20853 0.735294C5.29663 0.331946 6.44609 0.119126 7.60647 0.106176C9.53588 0.0179412 10.1153 0 15 0C19.8847 0 20.4638 0.0197059 22.3941 0.106176C23.5542 0.120318 24.7033 0.333102 25.7915 0.735294C26.5864 1.02833 27.3054 1.496 27.8956 2.10382C28.5036 2.69419 28.9715 3.41341 29.2647 4.20853C29.6682 5.29661 29.8811 6.44608 29.8941 7.60647C29.9824 9.53677 30.0003 10.1147 30.0003 15.0006C30.0003 19.8865 29.9824 20.4644 29.8941 22.3947C29.8801 23.5549 29.6672 24.7041 29.2647 25.7924C28.9602 26.5815 28.4939 27.2982 27.8957 27.8962C27.2975 28.4943 26.5807 28.9604 25.7915 29.2647C24.7034 29.6681 23.5539 29.8811 22.3935 29.8941C20.465 29.9824 19.8853 30.0003 14.9994 30.0003C10.1135 30.0003 9.53559 29.9832 7.60706 29.8941" fill="url(#paint1_radial_244_8137)"/>
<path d="M11.3173 15.0638C11.3174 14.3291 11.5353 13.6108 11.9436 12.9999C12.3519 12.389 12.9321 11.9129 13.611 11.6318C14.2898 11.3507 15.0368 11.2772 15.7575 11.4206C16.4781 11.564 17.14 11.9179 17.6595 12.4375C18.179 12.9572 18.5328 13.6192 18.676 14.3398C18.8193 15.0605 18.7456 15.8075 18.4643 16.4863C18.183 17.1651 17.7068 17.7452 17.0958 18.1534C16.4848 18.5615 15.7665 18.7793 15.0317 18.7791C14.0465 18.779 13.1017 18.3875 12.4051 17.6907C11.7085 16.994 11.3172 16.0491 11.3173 15.0638ZM9.30878 15.0638C9.30878 16.1957 9.64442 17.3022 10.2733 18.2433C10.9021 19.1845 11.7959 19.918 12.8416 20.3512C13.8874 20.7843 15.0381 20.8976 16.1482 20.6768C17.2583 20.456 18.2781 19.9109 19.0785 19.1106C19.8788 18.3102 20.4239 17.2905 20.6447 16.1803C20.8655 15.0702 20.7522 13.9195 20.319 12.8738C19.8859 11.828 19.1523 10.9342 18.2112 10.3054C17.2701 9.67654 16.1636 9.3409 15.0317 9.3409C14.2802 9.34086 13.536 9.48887 12.8416 9.77646C12.1472 10.064 11.5163 10.4856 10.9849 11.017C10.4535 11.5485 10.0319 12.1794 9.74433 12.8737C9.45674 13.5681 9.30874 14.3123 9.30878 15.0638ZM19.6438 9.11414C19.6437 9.37864 19.722 9.63724 19.8688 9.85723C20.0157 10.0772 20.2245 10.2487 20.4688 10.3501C20.7131 10.4514 20.982 10.478 21.2415 10.4265C21.5009 10.375 21.7393 10.2477 21.9264 10.0608C22.1135 9.87384 22.241 9.63561 22.2927 9.37621C22.3444 9.11681 22.318 8.8479 22.2169 8.60349C22.1158 8.35907 21.9445 8.15014 21.7246 8.00309C21.5047 7.85604 21.2462 7.77749 20.9817 7.77738C20.6272 7.77753 20.2872 7.9184 20.0364 8.16904C19.7857 8.41968 19.6447 8.7596 19.6444 9.11414M10.5297 24.1359C9.82293 24.1281 9.12281 23.9988 8.45995 23.7536C7.97924 23.5683 7.54265 23.2844 7.17828 22.9202C6.81392 22.556 6.52985 22.1195 6.34436 21.6388C6.099 20.976 5.96966 20.2759 5.96201 19.5691C5.9079 18.3944 5.89731 18.0415 5.89731 15.0653C5.89731 12.0891 5.90907 11.7371 5.96201 10.5612C5.97059 9.85455 6.0999 9.15456 6.34436 8.49149C6.52963 8.01063 6.81362 7.57393 7.178 7.20954C7.54239 6.84516 7.97909 6.56117 8.45995 6.3759C9.12278 6.13055 9.82292 6.00121 10.5297 5.99355C11.7044 5.93943 12.0573 5.92885 15.0323 5.92885C18.0073 5.92885 18.3605 5.94032 19.5364 5.99385C20.2431 6.00242 20.9431 6.13173 21.6061 6.3762C22.087 6.56149 22.5237 6.84547 22.8881 7.20986C23.2524 7.57424 23.5364 8.01093 23.7217 8.49178C23.9671 9.15461 24.0964 9.85476 24.1041 10.5615C24.1582 11.738 24.1688 12.0891 24.1688 15.0656C24.1688 18.0421 24.1579 18.3938 24.1041 19.5697C24.0958 20.2764 23.9665 20.9764 23.7217 21.6394C23.5362 22.1201 23.2522 22.5565 22.8878 22.9208C22.5234 23.285 22.0868 23.5688 21.6061 23.7541C20.9433 23.9995 20.2432 24.1288 19.5364 24.1365C18.3617 24.1906 18.0088 24.2012 15.0323 24.2012C12.0558 24.2012 11.7041 24.1903 10.5297 24.1365M10.4373 3.98679C9.51255 4.00497 8.59759 4.18 7.73142 4.50443C6.99098 4.79071 6.31854 5.22857 5.75719 5.78991C5.19585 6.35125 4.758 7.0237 4.47171 7.76414C4.14733 8.63032 3.9723 9.54527 3.95407 10.47C3.89907 11.6583 3.88672 12.0383 3.88672 15.065C3.88672 18.0918 3.89937 18.4715 3.95407 19.66C3.97229 20.5848 4.14732 21.4997 4.47171 22.3659C4.75802 23.1063 5.19587 23.7788 5.75721 24.3401C6.31855 24.9015 6.99099 25.3393 7.73142 25.6256C8.59763 25.9499 9.51257 26.1249 10.4373 26.1433C11.6261 26.1974 12.0055 26.2106 15.0323 26.2106C18.0591 26.2106 18.4388 26.198 19.6273 26.1433C20.5521 26.125 21.467 25.95 22.3332 25.6256C23.0736 25.3393 23.7461 24.9015 24.3074 24.3401C24.8687 23.7788 25.3066 23.1063 25.5929 22.3659C25.9177 21.4998 26.0928 20.5848 26.1105 19.66C26.1647 18.4709 26.177 18.0918 26.177 15.065C26.177 12.0383 26.1644 11.6586 26.1105 10.47C26.0924 9.54527 25.9173 8.63031 25.5929 7.76414C25.3066 7.02384 24.8689 6.3515 24.3077 5.79017C23.7465 5.22885 23.0743 4.79091 22.3341 4.50443C21.468 4.17979 20.553 4.00475 19.6282 3.98679C18.4397 3.93238 18.06 3.91943 15.0338 3.91943C12.0076 3.91943 11.627 3.93208 10.4379 3.98679" fill="white"/>
</g>
<defs>
<radialGradient id="paint0_radial_244_8137" cx="0" cy="0" r="1" gradientUnits="userSpaceOnUse" gradientTransform="translate(1.94147 29.3429) scale(38.0888)">
<stop offset="0.09" stop-color="#FA8F21"/>
<stop offset="0.78" stop-color="#D82D7E"/>
</radialGradient>
<radialGradient id="paint1_radial_244_8137" cx="0" cy="0" r="1" gradientUnits="userSpaceOnUse" gradientTransform="translate(20.78 28.3794) scale(33.5185)">
<stop offset="0.64" stop-color="#8C3AAA" stop-opacity="0"/>
<stop offset="1" stop-color="#8C3AAA"/>
</radialGradient>
<clipPath id="clip0_244_8137">
<rect width="30" height="30" fill="white"/>
</clipPath>
</defs>
</svg>
