<svg width="34" height="30" viewBox="0 0 34 30" fill="none" xmlns="http://www.w3.org/2000/svg">
<path fill-rule="evenodd" clipRule="evenodd" d="M32.555 7.6125C31.6327 6.165 30.6319 5.89875 28.594 5.7975C26.5583 5.67563 21.4391 5.625 17.0042 5.625C12.5609 5.625 7.43962 5.67563 5.406 5.79563C3.37237 5.89875 2.36937 6.16312 1.43862 7.6125C0.48875 9.05813 0 11.5481 0 15.9319V15.9469C0 20.3119 0.48875 22.8206 1.43862 24.2512C2.36937 25.6987 3.37025 25.9613 5.40387 26.0831C7.43962 26.1881 12.5609 26.25 17.0042 26.25C21.4391 26.25 26.5583 26.1881 28.5961 26.085C30.634 25.9631 31.6349 25.7006 32.5571 24.2531C33.5155 22.8225 34 20.3137 34 15.9487V15.9338C34 11.5481 33.5155 9.05813 32.555 7.6125Z" fill="#F44336"/>
<path fill-rule="evenodd" clipRule="evenodd" d="M12.75 21.5625V10.3125L23.375 15.9375L12.75 21.5625Z" fill="#FAFAFA"/>
</svg>
